<?xml version="1.0" encoding="UTF-8" standalone="no"?>
<!-- Created with Inkscape (http://www.inkscape.org/) -->

<svg
   xmlns:dc="http://purl.org/dc/elements/1.1/"
   xmlns:cc="http://creativecommons.org/ns#"
   xmlns:rdf="http://www.w3.org/1999/02/22-rdf-syntax-ns#"
   xmlns:svg="http://www.w3.org/2000/svg"
   xmlns="http://www.w3.org/2000/svg"
   xmlns:sodipodi="http://sodipodi.sourceforge.net/DTD/sodipodi-0.dtd"
   xmlns:inkscape="http://www.inkscape.org/namespaces/inkscape"
   width="1024"
   height="1024"
   viewBox="0 0 270.93332 270.93334"
   version="1.1"
   id="svg8"
   sodipodi:docname="fallingDamageSign.svg"
   inkscape:version="0.92.3 (2405546, 2018-03-11)"
   inkscape:export-filename="C:\de_alien\textures\noFallingDamageSign.png"
   inkscape:export-xdpi="96.000008"
   inkscape:export-ydpi="96.000008">
  <defs
     id="defs2">
    <marker
       inkscape:stockid="TriangleOutS"
       orient="auto"
       refY="0.0"
       refX="0.0"
       id="TriangleOutS"
       style="overflow:visible"
       inkscape:isstock="true">
      <path
         id="path1006"
         d="M 5.77,0.0 L -2.88,5.0 L -2.88,-5.0 L 5.77,0.0 z "
         style="fill-rule:evenodd;stroke:#839496;stroke-width:1pt;stroke-opacity:1;fill:#839496;fill-opacity:1"
         transform="scale(0.2)" />
    </marker>
    <marker
       inkscape:stockid="Arrow2Mend"
       orient="auto"
       refY="0.0"
       refX="0.0"
       id="Arrow2Mend"
       style="overflow:visible;"
       inkscape:isstock="true">
      <path
         id="path885"
         style="fill-rule:evenodd;stroke-width:0.625;stroke-linejoin:round;stroke:#839496;stroke-opacity:1;fill:#839496;fill-opacity:1"
         d="M 8.7185878,4.0337352 L -2.2072895,0.016013256 L 8.7185884,-4.0017078 C 6.9730900,-1.6296469 6.9831476,1.6157441 8.7185878,4.0337352 z "
         transform="scale(0.6) rotate(180) translate(0,0)" />
    </marker>
  </defs>
  <sodipodi:namedview
     id="base"
     pagecolor="#ffffff"
     bordercolor="#666666"
     borderopacity="1.0"
     inkscape:pageopacity="0.0"
     inkscape:pageshadow="2"
     inkscape:zoom="0.49497475"
     inkscape:cx="295.18209"
     inkscape:cy="462.93847"
     inkscape:document-units="mm"
     inkscape:current-layer="layer1"
     showgrid="false"
     units="px"
     inkscape:window-width="1680"
     inkscape:window-height="987"
     inkscape:window-x="-8"
     inkscape:window-y="-8"
     inkscape:window-maximized="1" />
  <metadata
     id="metadata5">
    <rdf:RDF>
      <cc:Work
         rdf:about="">
        <dc:format>image/svg+xml</dc:format>
        <dc:type
           rdf:resource="http://purl.org/dc/dcmitype/StillImage" />
        <dc:title></dc:title>
      </cc:Work>
    </rdf:RDF>
  </metadata>
  <g
     inkscape:label="Layer 1"
     inkscape:groupmode="layer"
     id="layer1"
     transform="translate(0,-26.066653)">
    <rect
       style="fill:#002b36;fill-opacity:1;stroke:none;stroke-width:1.57308805;stroke-linecap:round;stroke-linejoin:miter;stroke-miterlimit:4;stroke-dasharray:none;stroke-dashoffset:0;stroke-opacity:1;paint-order:markers fill stroke"
       id="rect815"
       width="270.93332"
       height="270.93332"
       x="7.1207683e-006"
       y="26.066652" />
    <path
       style="fill:#839496;fill-opacity:1;stroke-width:0.04283585"
       d="m 71.931688,105.44198 c -0.382763,-0.0925 -0.5056,-0.13436 -0.750061,-0.25572 -0.705941,-0.35046 -1.257478,-1.05654 -1.505867,-1.92783 -0.07947,-0.27876 -0.09686,-0.44478 -0.0962,-0.91854 8.03e-4,-0.56263 0.01372,-0.64325 0.477485,-2.977087 1.100307,-5.537127 2.200377,-11.211402 2.187895,-11.285422 -0.0074,-0.0437 -1.467143,-1.703436 -3.243936,-3.688271 l -3.230536,-3.60878 -0.08362,0.102946 c -0.046,0.05661 -1.337808,1.710169 -2.870695,3.674549 -2.077152,2.661852 -2.847809,3.619336 -3.025545,3.758993 -0.503961,0.396004 -1.13639,0.650695 -1.893154,0.762418 -0.397329,0.05866 -1.239649,0.06712 -6.618138,0.06668 -6.721499,-3.94e-4 -6.334736,0.01342 -6.881153,-0.248731 -0.568227,-0.272616 -1.011382,-0.743516 -1.317472,-1.399946 -0.237757,-0.509886 -0.318642,-0.892211 -0.317185,-1.499249 0.0016,-0.62217 0.07709,-0.952209 0.347117,-1.515498 0.158334,-0.330294 0.254818,-0.464618 0.542346,-0.755057 0.238076,-0.240495 0.437476,-0.397347 0.624496,-0.491247 0.603484,-0.302994 0.113462,-0.279547 5.841724,-0.279547 h 5.17408 l 7.216191,-9.610994 c 3.9689,-5.286049 7.216186,-9.618357 7.216186,-9.627352 0,-0.009 -0.852968,-0.01576 -1.895488,-0.01503 l -1.895484,0.0015 -3.255527,4.332614 c -1.790538,2.382942 -3.36576,4.451538 -3.500491,4.596878 -0.894479,0.964925 -2.343455,0.818257 -3.088092,-0.312581 -0.236237,-0.358747 -0.350707,-0.665331 -0.416546,-1.115591 -0.06117,-0.418321 -0.0056,-0.901127 0.151816,-1.319375 0.119306,-0.316973 0.1812,-0.420057 0.472669,-0.787223 0.121568,-0.153138 1.777541,-2.340978 3.679942,-4.86187 1.9024,-2.520891 3.56782,-4.695329 3.700927,-4.832082 0.159532,-0.163907 0.350723,-0.302601 0.560979,-0.40694 l 0.318962,-0.15829 2.486785,-0.03283 c 1.367732,-0.01802 3.874667,-0.02692 5.570968,-0.01977 2.837882,0.01204 3.102994,0.01926 3.319777,0.09049 0.387696,0.1274 0.77907,0.354828 1.05954,0.615706 0.145416,0.135258 1.712436,1.913312 3.482268,3.951223 1.769833,2.037918 3.232958,3.7053 3.251387,3.7053 0.01846,0 1.242415,-1.387879 2.719962,-3.08418 1.564407,-1.796023 2.783309,-3.158835 2.918355,-3.262926 0.316221,-0.243734 0.64893,-0.364131 1.075765,-0.389293 0.605076,-0.03567 1.119526,0.178877 1.581306,0.65948 0.24903,0.259185 0.53119,0.789987 0.62309,1.172218 0.0734,0.305227 0.0727,1.02709 -0.001,1.32791 -0.15733,0.639724 -0.10077,0.567141 -3.620967,4.64769 -1.80887,2.096815 -3.397702,3.924544 -3.530735,4.061633 -0.855472,0.881509 -1.889784,1.092019 -2.769193,0.563609 -0.14136,-0.08493 -0.321618,-0.215835 -0.400572,-0.290884 -0.07895,-0.07505 -1.04946,-1.182038 -2.156675,-2.459981 l -2.013123,-2.323528 -0.366099,0.481587 c -0.201358,0.264876 -1.60837,2.134123 -3.126699,4.153876 l -2.760591,3.672281 0.121652,0.145552 c 0.06691,0.08006 1.3746,1.584943 2.905981,3.34419 1.531382,1.759246 2.843928,3.29938 2.916762,3.42252 0.200471,0.338917 0.345957,0.736446 0.426027,1.164084 0.09804,0.523623 0.07027,1.511325 -0.05782,2.05611 -0.09015,0.383435 -0.24188,1.147793 -0.820574,4.133664 -0.166665,0.85993 -0.321472,1.65024 -0.344022,1.75626 -0.02254,0.10603 -0.176759,0.89634 -0.342687,1.75628 -0.165929,0.859917 -0.32014,1.650237 -0.342686,1.756257 -0.02254,0.10602 -0.176759,0.89634 -0.342687,1.75627 -0.165929,0.85993 -0.32014,1.65025 -0.342687,1.75627 -0.02254,0.10602 -0.177129,0.896337 -0.34351,1.756267 -0.405648,2.09654 -0.460873,2.35779 -0.558158,2.64055 -0.146936,0.42708 -0.382285,0.79268 -0.743747,1.15535 -0.351038,0.35222 -0.597863,0.50871 -1.052281,0.66717 -0.229288,0.08 -0.872614,0.13842 -1.050441,0.0954 z M 82.640653,62.090125 c -0.72615,-0.07893 -1.587872,-0.332825 -2.217401,-0.653344 -1.487108,-0.757129 -2.621524,-2.137559 -3.007716,-3.659981 -0.747097,-2.945136 0.90218,-5.834149 3.899157,-6.830072 0.652146,-0.216712 1.111073,-0.284012 1.925659,-0.282407 1.035231,0.0022 1.746647,0.16155 2.660453,0.596505 1.113147,0.529832 2.165771,1.54058 2.693093,2.585967 0.614846,1.218909 0.768138,2.615105 0.429885,3.915555 -0.560138,2.153544 -2.382373,3.802848 -4.691113,4.245944 -0.36084,0.06923 -1.362201,0.117676 -1.692017,0.08183 z"
       id="path854"
       inkscape:connector-curvature="0" />
    <path
       style="fill:none;stroke:#839496;stroke-width:5.29166651;stroke-linecap:butt;stroke-linejoin:miter;stroke-miterlimit:4;stroke-dasharray:none;stroke-opacity:1;marker-end:url(#TriangleOutS)"
       d="M 66.282842,116.86032 V 220.5609"
       id="path856"
       inkscape:connector-curvature="0"
       sodipodi:nodetypes="cc" />
    <text
       xml:space="preserve"
       style="font-style:normal;font-variant:normal;font-weight:bold;font-stretch:normal;font-size:28.22222222px;line-height:1.25;font-family:'Source Code Pro';-inkscape-font-specification:'Source Code Pro, Bold';font-variant-ligatures:normal;font-variant-caps:normal;font-variant-numeric:normal;font-feature-settings:normal;text-align:start;letter-spacing:0px;word-spacing:0px;writing-mode:lr;text-anchor:start;fill:#839496;fill-opacity:1;stroke:none;stroke-width:0.26458332;"
       x="119.30968"
       y="114.83965"
       id="text1216"><tspan
         sodipodi:role="line"
         id="tspan1214"
         x="119.30968"
         y="114.83965"
         style="font-style:normal;font-variant:normal;font-weight:bold;font-stretch:normal;font-size:28.22222222px;font-family:'Source Code Pro';-inkscape-font-specification:'Source Code Pro, Bold';font-variant-ligatures:normal;font-variant-caps:normal;font-variant-numeric:normal;font-feature-settings:normal;text-align:start;writing-mode:lr;text-anchor:start;fill:#839496;fill-opacity:1;stroke-width:0.26458332;">No Fall</tspan><tspan
         sodipodi:role="line"
         x="119.30968"
         y="146.58965"
         style="font-style:normal;font-variant:normal;font-weight:bold;font-stretch:normal;font-size:28.22222222px;font-family:'Source Code Pro';-inkscape-font-specification:'Source Code Pro, Bold';font-variant-ligatures:normal;font-variant-caps:normal;font-variant-numeric:normal;font-feature-settings:normal;text-align:start;writing-mode:lr;text-anchor:start;fill:#839496;fill-opacity:1;stroke-width:0.26458332;"
         id="tspan1218">Damage</tspan></text>
    <ellipse
       style="fill:#839496;fill-opacity:1;stroke:#839496;stroke-width:5.29166651;stroke-linecap:round;stroke-linejoin:miter;stroke-miterlimit:4;stroke-dasharray:none;stroke-dashoffset:0;stroke-opacity:1;paint-order:markers fill stroke"
       id="path1220"
       cx="66.282845"
       cy="259.58224"
       rx="37.417732"
       ry="8.5526247" />
    <path
       style="fill:none;stroke:#859900;stroke-width:5.29166651;stroke-linecap:butt;stroke-linejoin:miter;stroke-miterlimit:4;stroke-dasharray:none;stroke-opacity:1"
       d="m 142.51354,203.84076 18.04749,18.04749 46.24669,-46.24669"
       id="path1234"
       inkscape:connector-curvature="0" />
  </g>
</svg>
