<?xml version="1.0" encoding="UTF-8" standalone="no"?>
<!-- Created with Inkscape (http://www.inkscape.org/) -->

<svg
   xmlns:dc="http://purl.org/dc/elements/1.1/"
   xmlns:cc="http://creativecommons.org/ns#"
   xmlns:rdf="http://www.w3.org/1999/02/22-rdf-syntax-ns#"
   xmlns:svg="http://www.w3.org/2000/svg"
   xmlns="http://www.w3.org/2000/svg"
   xmlns:sodipodi="http://sodipodi.sourceforge.net/DTD/sodipodi-0.dtd"
   xmlns:inkscape="http://www.inkscape.org/namespaces/inkscape"
   width="2048"
   height="1024"
   viewBox="0 0 541.86664 270.93334"
   version="1.1"
   id="svg8"
   inkscape:version="0.92.3 (2405546, 2018-03-11)"
   sodipodi:docname="flashbangSign.svg"
   inkscape:export-filename="C:\de_alien\textures\flashbangSign.png"
   inkscape:export-xdpi="96"
   inkscape:export-ydpi="96">
  <defs
     id="defs2">
    <marker
       inkscape:stockid="Arrow2Send"
       orient="auto"
       refY="0"
       refX="0"
       id="Arrow2Send"
       style="overflow:visible"
       inkscape:isstock="true">
      <path
         id="path904"
         style="fill:#505050;fill-opacity:1;fill-rule:evenodd;stroke:#505050;stroke-width:0.625;stroke-linejoin:round;stroke-opacity:1"
         d="M 8.7185878,4.0337352 -2.2072895,0.01601326 8.7185884,-4.0017078 c -1.7454984,2.3720609 -1.7354408,5.6174519 -6e-7,8.035443 z"
         transform="matrix(-0.3,0,0,-0.3,0.69,0)"
         inkscape:connector-curvature="0" />
    </marker>
    <clipPath
       clipPathUnits="userSpaceOnUse"
       id="clipPath850">
      <rect
         style="fill:#000000;fill-opacity:0.27441861;stroke:none;stroke-width:0.79374999;stroke-linecap:round;stroke-linejoin:miter;stroke-miterlimit:4;stroke-dasharray:0.79374999, 0.79374999;stroke-dashoffset:0;stroke-opacity:1"
         id="rect852"
         width="75.973213"
         height="109.99107"
         x="-111.125"
         y="108.76786" />
    </clipPath>
  </defs>
  <sodipodi:namedview
     id="base"
     pagecolor="#ffffff"
     bordercolor="#666666"
     borderopacity="1.0"
     inkscape:pageopacity="0.0"
     inkscape:pageshadow="2"
     inkscape:zoom="0.35"
     inkscape:cx="522.42971"
     inkscape:cy="545.88341"
     inkscape:document-units="mm"
     inkscape:current-layer="layer1"
     showgrid="false"
     inkscape:window-width="1680"
     inkscape:window-height="987"
     inkscape:window-x="-8"
     inkscape:window-y="-8"
     inkscape:window-maximized="1"
     units="px" />
  <metadata
     id="metadata5">
    <rdf:RDF>
      <cc:Work
         rdf:about="">
        <dc:format>image/svg+xml</dc:format>
        <dc:type
           rdf:resource="http://purl.org/dc/dcmitype/StillImage" />
        <dc:title />
      </cc:Work>
    </rdf:RDF>
  </metadata>
  <g
     inkscape:label="Layer 1"
     inkscape:groupmode="layer"
     id="layer1"
     transform="translate(0,-26.066653)">
    <rect
       style="fill:#ffffff;fill-opacity:1;stroke:none;stroke-width:2.60521674;stroke-linecap:round;stroke-linejoin:round;stroke-miterlimit:4;stroke-dasharray:none;stroke-dashoffset:0;stroke-opacity:1"
       id="rect4536"
       width="541.86664"
       height="270.93332"
       x="1.4241537e-005"
       y="26.06666" />
    <rect
       style="fill:#505050;fill-opacity:1;stroke:none;stroke-width:3.9690001;stroke-linecap:round;stroke-linejoin:miter;stroke-miterlimit:4;stroke-dasharray:none;stroke-dashoffset:0;stroke-opacity:1"
       id="rect1153"
       width="109.04597"
       height="18.174328"
       x="334.71457"
       y="251.06862" />
    <rect
       style="fill:#06ff00;fill-opacity:1;stroke:none;stroke-width:3.96875;stroke-linecap:round;stroke-linejoin:miter;stroke-miterlimit:4;stroke-dasharray:none;stroke-dashoffset:0;stroke-opacity:1"
       id="rect1155"
       width="109.04597"
       height="179.07057"
       x="334.71457"
       y="71.998032" />
    <rect
       style="fill:#06ffff;fill-opacity:1;stroke:none;stroke-width:1.28281856;stroke-linecap:round;stroke-linejoin:miter;stroke-miterlimit:4;stroke-dasharray:none;stroke-dashoffset:0;stroke-opacity:1"
       id="rect1155-2"
       width="109.04597"
       height="18.708857"
       x="334.71457"
       y="96.052299" />
    <rect
       style="fill:#06ffff;fill-opacity:1;stroke:none;stroke-width:1.28281856;stroke-linecap:round;stroke-linejoin:miter;stroke-miterlimit:4;stroke-dasharray:none;stroke-dashoffset:0;stroke-opacity:1"
       id="rect1155-2-7"
       width="109.04597"
       height="18.708857"
       x="334.84824"
       y="155.25249" />
    <rect
       style="fill:#06ffff;fill-opacity:1;stroke:none;stroke-width:1.28281856;stroke-linecap:round;stroke-linejoin:miter;stroke-miterlimit:4;stroke-dasharray:none;stroke-dashoffset:0;stroke-opacity:1"
       id="rect1155-2-8"
       width="109.04597"
       height="18.708857"
       x="334.67661"
       y="215.67834" />
    <rect
       style="fill:#505050;fill-opacity:1;stroke:none;stroke-width:3.9690001;stroke-linecap:round;stroke-linejoin:miter;stroke-miterlimit:4;stroke-dasharray:none;stroke-dashoffset:0;stroke-opacity:1"
       id="rect1153-9"
       width="109.04597"
       height="18.174328"
       x="334.71457"
       y="53.8237" />
    <path
       style="fill:none;fill-opacity:1;stroke:#505050;stroke-width:2.79117632;stroke-miterlimit:4;stroke-dasharray:none;stroke-opacity:1"
       d="m 69.352144,204.23905 c -0.125165,-0.56828 0.103419,-1.46968 0.793155,-3.12768 0.938299,-2.25549 1.042574,-2.38816 3.291765,-4.1869 2.26736,-1.8133 2.355075,-1.9259 3.676921,-4.72056 1.283501,-2.71355 1.388768,-2.85401 2.017047,-2.69147 0.638711,0.1652 0.706553,0.0664 1.86184,-2.71064 1.155279,-2.77707 1.177521,-2.89484 0.610077,-3.23138 -0.563261,-0.33407 -0.538542,-0.48003 0.567794,-3.35182 1.1326,-2.9398 1.170689,-2.99896 1.829276,-2.82847 0.643588,0.16658 0.726766,0.0535 1.929201,-2.62368 1.22677,-2.73128 1.24236,-2.80624 0.658745,-3.15225 -0.574943,-0.34077 -0.553119,-0.47068 0.567155,-3.37767 0.96849,-2.51291 1.23427,-2.99441 1.5753,-2.85254 0.59963,0.24945 0.71977,0.10053 2.10236,-2.60587 1.25342,-2.45355 1.25662,-2.46773 0.63866,-2.83376 -0.60006,-0.35545 -0.58484,-0.46263 0.45008,-3.16913 l 1.07108,-2.80126 -0.86766,-2.2534 -0.86766,-2.25341 1.89246,-4.29772 c 2.15274,-4.889 2.32067,-5.04453 4.47674,-4.14759 1.02619,0.4269 1.49303,0.3871 3.65675,-0.31171 l 2.48039,-0.80108 0.88907,-2.13717 c 0.90469,-2.17469 0.91526,-2.90943 0.047,-3.27064 -0.93095,-0.38728 -1.16352,-1.88934 -0.52881,-3.41507 0.99194,-2.38443 1.08287,-2.37312 10.07002,1.25159 4.15634,1.67642 7.65168,3.20383 7.76738,3.39444 0.1157,0.19059 0.70353,3.34168 1.30628,7.0024 0.60275,3.66073 1.17807,7.05714 1.27849,7.54761 0.10042,0.49045 0.45277,2.58015 0.78301,4.64377 l 2.10823,4.53197 -7.99144,19.20993 -7.99146,19.20994 -5.00245,-0.57593 c -2.96713,0.17324 -3.63437,0.11254 -4.42041,-0.40208 -0.8547,-0.55956 -0.89116,-0.67071 -0.47488,-1.44749 0.502,-0.93673 1.98424,-1.40213 5.0893,-1.59795 l 1.75929,-0.11096 7.09823,-17.06279 7.09822,-17.06279 -1.46072,-1.9296 c -2.28122,-3.01344 -2.03027,-3.01345 -3.28393,1.2e-4 l -1.09217,2.62537 -2.13739,0.82373 -2.1374,0.82372 -1.14014,2.74068 c -1.0385,2.49636 -1.19636,2.73574 -1.76994,2.68581 -0.57174,-0.0498 -0.73144,0.18943 -1.7322,2.59506 -1.00507,2.41599 -1.05861,2.68321 -0.60655,3.02687 0.45575,0.34648 0.39849,0.61088 -0.70864,3.27219 -1.17826,2.83232 -1.22197,2.8947 -2.00987,2.87036 -0.78156,-0.0242 -0.83818,0.0538 -1.91127,2.63335 -0.94759,2.27781 -1.04683,2.71295 -0.69377,3.04037 0.67005,0.62133 0.62229,1.02937 -0.41114,3.51356 -1.03344,2.48418 -1.28916,2.80571 -2.20222,2.76845 -0.48115,-0.0196 -0.71978,0.35755 -1.66736,2.63535 -1.0731,2.57951 -1.08843,2.67469 -0.52041,3.21196 0.5715,0.54055 0.5573,0.62177 -0.59717,3.41454 l -1.18346,2.86044 0.40175,2.93818 c 0.39694,2.90295 0.38992,2.96664 -0.58599,5.31253 -0.70669,1.69876 -1.18414,2.49901 -1.67797,2.81244 l -0.69022,0.43811 -11.651419,-4.84706 -11.651698,-4.84718 z"
       id="path865-9"
       inkscape:connector-curvature="0"
       sodipodi:nodetypes="cscccsccccccssccccccsccsssccccscccccccccccscccscscscscscsccccsccccc" />
    <path
       style="fill:none;stroke:#00ff00;stroke-width:13.22916698;stroke-linecap:round;stroke-linejoin:round;stroke-miterlimit:4;stroke-dasharray:none;stroke-opacity:1"
       d="m 195.45388,184.30652 29.10417,29.10417 68.79167,-68.79165"
       id="path1229"
       inkscape:connector-curvature="0" />
    <path
       style="fill:none;stroke:#505050;stroke-width:3.9690001;stroke-linecap:round;stroke-linejoin:miter;stroke-miterlimit:4;stroke-dasharray:none;stroke-opacity:1;marker-end:url(#Arrow2Send)"
       d="m 135.53067,141.04663 c 0,0 123.56495,-110.736015 249.42001,0"
       id="path869"
       inkscape:connector-curvature="0"
       sodipodi:nodetypes="cc" />
  </g>
</svg>
